/* XPM */
static char *_89615fa216447a7978314a9cf2d7fe5wq5pqF6Uha44qVZz[] = {
/* columns rows colors chars-per-pixel */
"64 64 17 1 ",
"  c black",
". c #202020",
"X c #2C2C2C",
"o c gray22",
"O c #484848",
"+ c gray33",
"@ c #646464",
"# c gray44",
"$ c #7C7C7C",
"% c gray55",
"& c #989898",
"* c gray66",
"= c #B4B4B4",
"- c #C0C0C0",
"; c #D0D0D0",
": c gainsboro",
"> c #ECECEC",
/* pixels */
"XXXXXXXXXXXXXXXXXXXXXXXXXXXXXXXXXXXXXXXXXXXXXXXXXXXXXXXXXXXXXXXX",
"+++++++++++O:::::::::::::::::.o%*-;;;;;;;--*%+.OOOOOOOOOOO++++++",
"+++++++++++O:;;;-;;;;;;--;;;%.o%-=%*%%%%%%%*+o.o#%%%%%%$$#@OOOOO",
"%%%%%%%%%.+O:;-=;=;-=;---=;%@.o*:*%*%*%**%*%+o.o%::::::--=*%%%%%",
";:;;=*%%%.+O:;****%****&&**$+.o%-%%%*****%%#+o.o%::---;::::::;;;",
"******$##.+O                                  .o%:=*%*%****%%*%*",
"=&*&*%$##.O                                    o%:=%*%&%%%%*%%&&",
"==$=%&@++.                                      %:=*%&$**&$%*%**",
"&**&&#OOO                                        ::%*%$&&$&%*%&$",
"%%%%#+OOO                                        -;%%%&&&&&%%*%*",
"####+Oooo                                        -=%*%*%%%%##@@@",
"++OOO....                                        =%##@@@@++++OOO",
".....XXXX                                       O%#@@+OOOOoooooX",
"XXXXXXXXX                                      ooooooooooooXX...",
"ooooooooo                                     .oXXXXXXXXXXXooooo",
"+Oooooooo          *&*%**%*+#O.XO*>*%%*%%*%*+o.oO++++.OOOOOOOOOO",
"&&&&&&&&&          &&$%%%%%#++..O*>%%**%%*%%+o.o#*::+O+$$&&&&&&&",
";;;;;;===          $%%%**%#%#O..O*;**%%**%*%+o.o*:-*.O$--:::::::",
"*&%*%**##          *%*#%%#+#+O..O*;*%#####+++o.o:-*%.O&::;======",
"*%*%*%%##          ##++##+#+OX..X*%#%#oooooooo.@:=%%.O&::=*&*&*%",
"*&%*%**##          +OOOooX......X%#ooo.........@:**%.O&::*%&%&%&",
"*%*%*%%##          .............Xo+o.....XXXXXX%:**%.O%--%*&*&*%",
"%*$$%%*##          .......OOOOOOO%%&**&%%%$+Xo@-:*%$.O%--*%&%&%&",
"%%$$%*%@@          =*%@ooO@$**--;::::::::;&@.o$:-**#.O$--*&%*%*%",
"%%**%%%@@          *&&o++O$;>>:-=---------#+.o%:=&%#.O#--%*&%&%%",
"&*%%*%#++          &&*.++O&>-%*%*&%*&*&%%%@O.o%>*%*+.OO%%#@+++@@",
"@@@@@+Ooo          %*@.OOO&>***%$**%%%*%%*+O.o%>**&+.+.oooOOOOOO",
"+OOooo...                       *%%$%*&%%%+O.o%>%*%+.+o.........",
"......XXX                        $%$%%%**%+O.o%>**%+.+ooooooooXX",
"O@@#%&%%%                         $%*$%%%*+O.o%>&**+.+OOOO++++++",
"@%=:::;;;                          $%$%**%+o.o%:%%*+.O*:::=%@+OO",
"@=;;-=***                          $*%*%%$+oXo%:*&%+.O:%%%=:::::",
"@:=**%*&&                          *$$%**#+oXo%:%*%+.O:%%%**%%*%",
"@:=&%*%**                          %$$*%%#OXXO%;**%+.O:***%%**%*",
"@:*&*%***                         %&%*%**@O.XO%;*%*+.O;**%**%%*%",
"@:=*%%*&&                        &%%&%&%%@o.XO%;%*++.O-****%*%%*",
"@:=%**%**                       *%*%*%%@@+o.oO$*$+oooO***%**%*%%",
"@:=**%*&&          %*#+...o+%-*%$@@+OOooooo.oO+ooooOO.#++O++++++",
"@:=%**%**          %%#+...o+O%%@+Oo.........oO+OO+++++..........",
"@:=%%&*%%          %*@+...XOOoXXX..XXXXXXXXXoO++OOOOOOOOOOoooooo",
"@:=**%&**          *%@+...XOOOoooooOOOOOOOOOOO++$$$$$$$$$$$$$$$$",
"@:=%%*%**          %*#+XX.Xo@$$$$$$$$$$$$$$%%&&*==-------=------",
"@;=**&*%%          %%@+XX..o$----------------;::>>>>>>>>>>>>::;;",
"@;=&*%***          %*@+oo...$-;>>>>>>:>>>:>>>>>>::;-=----*--=--=",
"@-=*%*%%%          %%@+oo...$-;=-----*---*---==*&&%%*%*%%%%*%*%*",
"O-%%*%###          *%#+oo...@-:=%%%%%%*%%**&%&***&$&%**&&%*%***%",
"O=***%+++          %%#+oo...O-:-%&%*%*%&&*%%&**%&%&%%$%&&&%*%*%*",
"O$$$+++++          %#@+oo...X=:;**%%%%$%%%*%&%*&$%%*%%*%%$$%$&%&",
"Oo...++++                                   &&%*%*&%*%%$$%%%*%$$",
"+++Oo..XX                                    %&$*%%$%%%%%*%$%&$$",
"OOOOOOOXX                                     %%%$%%*%*%%%*%%%%&",
"O$****&%%                                      $$$$$$$$$$$$$$$$$",
"O*-::::::                                      +++++++++++++++++",
"O*:**%-;;                                      XXXXXX...........",
"O*:***===                                      oXXXXXXXXXXXXXXXX",
"O*:*%*$$$*                                    oooooooooooooooooo",
"O*;***&**%&                                  OOO+++OOOOOOOOOOOOO",
"O*-*%*$$$&*%                                :::=++O=::::::::;-=&",
"O*%@@@@@@@@@@@@@@@@@@@@@@@@@@@@@@++o.oO::=======@+$:***%%*%*&*%*",
"O%@ooooooooooooooooooooooooooooooooo.XO==*==&@&%@O=*%*%****%*%*%",
"Oo...................................XOooOo+@@@@@O:*&&***&&*&**%",
"+OoooXXXXXXXXXXXXXXXXXXXXXXXXXXXXXXXXXo+++oo.....o++++++++++++++",
"++++OOOOOOOOOoooooooooooooooooooooooooo+++++oooooo++............",
"oooooooooooooooooooooooooooooooooooooooooooooooooooooooooooooooo"
};
