/* XPM */
static char *_0b5292c64f846aa88c211b4c761dc28TtrNeYNtMdlY1fTG[] = {
/* columns rows colors chars-per-pixel */
"64 64 17 1 ",
"  c black",
". c #202020",
"X c #2C2C2C",
"o c gray22",
"O c #484848",
"+ c gray33",
"@ c #646464",
"# c gray44",
"$ c #7C7C7C",
"% c gray55",
"& c #989898",
"* c gray66",
"= c #B4B4B4",
"- c #C0C0C0",
"; c #D0D0D0",
": c gainsboro",
"> c #ECECEC",
/* pixels */
"XXXXXXXXXXXXXXXXXXXXXXXXXXXXXXXXXXXXXXXXXXXXXXXXXXXXXXXXXXXXXXXX",
"+++++++++++O:::::::::::::::::.o%*-;;;;;;;--*%+.OOOOOOOOOOO++++++",
"+++++++++++O:;;;-;;;;;;--;;;%.o%-=%*%%%%%%%*+o.o#%%%%%%$$#@OOOOO",
"%%%%%%%%%.+O:;-=;=;-=;---=;%@.o*:*%*%*%**%*%+o.o%::::::--=*%%%%%",
";:;;=*%%%.+O:;*    ****&&**$+.o%-%%%*****%%#+o.o%::---;::::::;;;",
"******$##.+O>-      *&*%%**#+.oO*%**%    *#++o.o%:=*%*%****%%*%*",
"=&*&*%$##.OO>        &&%%&*%+.oO$%%*      #ooo.o%:=%*%&%%%%*%%&&",
"==$=%&@++.oO          %&&*%@+.oOO%*        oooXo%:=*%&$**&$%*%**",
"&**&&#OOO.XO           %%%*#+..O+O          o.Xo$::%*%$&&$&%*%&$",
"%%%%#+OOO.XO           %%*%+$X.oOo          ..OOO-;%%%&&&&&%%*%*",
"####+Oooo.XO            *%*#+X.oOo          XXO+O-=%*%*%%%%##@@@",
"++OOO.....XO            %$%#@o.oOO          &#o+O=%##@@@@++++OOO",
".....XXXXXo+             %*%+o.oO#          #+.+O%#@@+OOOOoooooX",
"XXXXXXXXXXo+             %%#+o.Xo*          #o.ooooooooooooXX...",
"ooooooooooo+              %++o.XO*          +o.oXXXXXXXXXXXooooo",
"+Oooooooooo+              *+#O.XO*          +o.oO++++.OOOOOOOOOO",
"&&&&&&&&&&X.               #++..O*          +o.o#*::+O+$$&&&&&&&",
";;;;;;===#o.               %#O..O*          +o.o*:-*.O$--:::::::",
"*&%*%**###o.                +O..O*          +o.o:-*%.O&::;======",
"*%*%*%%###o.                OX..X*          oo.@:=%%.O&::=*&*&*%",
"*&%*%**##+o.                 ...X%          ...@:**%.O&::*%&%&%&",
"*%*%*%%##+o.                 ...Xo          XXX%:**%.O%--%*&*&*%",
"%*$$%%*##+o.                  OOO%          Xo@-:*%$.O%--*%&%&%&",
"%%$$%*%@@Oo.                  --;:          .o$:-**#.O$--*&%*%*%",
"%%**%%%@@Oo.                   -=-          .o%:=&%#.O#--%*&%&%%",
"&*%%*%#++oo.                   %*&          .o%>*%*+.OO%%#@+++@@",
"@@@@@+Ooooo.                    $*          .o%>**&+.+.oooOOOOOO",
"+OOooo.....X                    *%          .o%>%*%+.+o.........",
"......XXXXOO                     $          .o%>**%+.+ooooooooXX",
"O@@#%&%%%%%O                     %          .o%>&**+.+OOOO++++++",
"@%=:::;;;;*#                                .o%:%%*+.O*:::=%@+OO",
"@=;;-=***&*O          O                     Xo%:*&%+.O:%%%=:::::",
"@:=**%*&&*%#          O                     Xo%:%*%+.O:%%%**%%*%",
"@:=&%*%**%*#          +.                    XO%;**%+.O:***%%**%*",
"@:*&*%***$*+          +.                    XO%;*%*+.O;**%**%%*%",
"@:=*%%*&&*%+          +..                   XO%;%*++.O-****%*%%*",
"@:=%**%**%*+          +..                   oO$*$+oooO***%**%*%%",
"@:=**%*&&*%+          +...                  oO+ooooOO.#++O++++++",
"@:=%**%**$*+          +...                  oO+OO+++++..........",
"@:=%%&*%%*%+          +...X                 oO++OOOOOOOOOOoooooo",
"@:=**%&**&*+          +...X                 OO++$$$$$$$$$$$$$$$$",
"@:=%%*%**%#+          +XX.Xo                %&&*==-------=------",
"@;=**&*%%*+.          +XX..o                -;::>>>>>>>>>>>>::;;",
"@;=&*%***%+.          +oo...$               >>>>::;-=----*--=--=",
"@-=*%*%%%%+.          +oo...$               -==*&&%%*%*%%%%*%*%*",
"O-%%*%####+.          +oo...@-              %&***&$&%**&&%*%***%",
"O=***%++++.X          +oo...O-              &**%&%&%%$%&&&%*%*%*",
"O$$$++++++.X          +oo...X=:             &%*&$%%*%%*%%$$%$&%&",
"Oo...+++++.o          +oo...X*:             &&%*%*&%*%%$$%%%*%$$",
"+++Oo..XX.Xo          ooo...X%;=            &%&$*%%$%%%%%*%$%&$$",
"OOOOOOOXXXXo          ......X%&#            %$%%%$%%*%*%%%*%%%%&",
"O$****&%%@OO          XXXXXXo+Ooo           $$$$$$$$$$$$$$$$$$$$",
"O*-::::::-**          ooooooO+OOo           ++++++++++++++++++++",
"O*:**%-;;:::          %%%$$#@@++OO          XXXXXXXXX...........",
"O*:***===%*-          :::;;--*****          ooooXXXXXXXXXXXXXXXX",
"O*:*%*$$$*&%$        %*%%**=-:::;-$        ooooooooooooooooooooo",
"O*;***&**%&%&*      *$%%%%*%*%***$@.      :*$OOO+++OOOOOOOOOOOOO",
"O*-*%*$$$&*%**&    %$&%**%*%*%***@+.o    **::::=++O=::::::::;-=&",
"O*%@@@@@@@@@@@@@@@@@@@@@@@@@@@@@@++o.oO::=======@+$:***%%*%*&*%*",
"O%@ooooooooooooooooooooooooooooooooo.XO==*==&@&%@O=*%*%****%*%*%",
"Oo...................................XOooOo+@@@@@O:*&&***&&*&**%",
"+OoooXXXXXXXXXXXXXXXXXXXXXXXXXXXXXXXXXo+++oo.....o++++++++++++++",
"++++OOOOOOOOOoooooooooooooooooooooooooo+++++oooooo++............",
"oooooooooooooooooooooooooooooooooooooooooooooooooooooooooooooooo"
};
