/* XPM */
static char *_1049b99248b4a74c2414098501502a9hOFcYoeIBDMJYvO5[] = {
/* columns rows colors chars-per-pixel */
"64 64 17 1 ",
"  c black",
". c #202020",
"X c #2C2C2C",
"o c gray22",
"O c #484848",
"+ c gray33",
"@ c #646464",
"# c gray44",
"$ c #7C7C7C",
"% c gray55",
"& c #989898",
"* c gray66",
"= c #B4B4B4",
"- c #C0C0C0",
"; c #D0D0D0",
": c gainsboro",
"> c #ECECEC",
/* pixels */
"XXXXXXXXXXXXXXXXXXXXXXXXXXXXXXXXXXXXXXXXXXXXXXXXXXXXXXXXXXXXXXXX",
"+++++++++++O:::::::::::::::::.o%*-;;;;;;;--*%+.OOOOOOOOOOO++++++",
"+++++++++++O:;;;-;;;;;;--;;;%.o%-=%*%%%%%%%*+o.o#%%%%%%$$#@OOOOO",
"%%%%%%%%%.+O:;-=;=;-=;---=;%@.o*:*%*%*%**%*%+o.o%::::::--=*%%%%%",
";:;;=*%%%.+O:;****%****&&**$+.o%-%%%*****%%#+o.o%::---;::::::;;;",
"******$##.+O>-&******&*%%**#+.oO*%**%%*%%*#++o.o%:=*%*%****%%*%*",
"=&*&*%$##.OO>;*%                               o%:=%*%&%%%%*%%&&",
"==$=%&@++.oO>;%                                 %:=*%&$**&$%*%**",
"&**&&#OOO.XO--                                   ::%*%$&&$&%*%&$",
"%%%%#+OOO.XO*                                     ;%%%&&&&&%%*%*",
"####+Oooo.XO%                                     =%*%*%%%%##@@@",
"++OOO.....XO#                                     %##@@@@++++OOO",
".....XXXXXo+O                                     #@@+OOOOoooooX",
"XXXXXXXXXXo+O                                    ooooooooooXX...",
"ooooooooooo+O                                   XXXXXXXXXXXooooo",
"+Oooooooooo+O                                  oO++++.OOOOOOOOOO",
"&&&&&&&&&&X.+          %%%%#++..O*>%%**%%*%%+o.o#*::+O+$$&&&&&&&",
";;;;;;===#o.+          **%#%#O..O*;**%%**%*%+o.o*:-*.O$--:::::::",
"*&%*%**###o.+          %%#+#+O..O*;*%#####+++o.o:-*%.O&::;======",
"*%*%*%%###o.O          ##+#+OX..X*%#%#oooooooo.@:=%%.O&::=*&*&*%",
"*&%*%**##+o.O          ooX......X%#ooo.........@:**%.O&::*%&%&%&",
"*%*%*%%##+o.O          .........Xo+o.....XXXXXX%:**%.O%--%*&*&*%",
"%*$$%%*##+o.o          ...OOOOOOO%%&**&%%%$+Xo@-:*%$.O%--*%&%&%&",
"%%$$%*%@@Oo.o          ooO@$**--;::::::::;&@.o$:-**#.O$--*&%*%*%",
"%%**%%%@@Oo.o          ++O$;>>:-=---------#+.o%:=&%#.O#--%*&%&%%",
"&*%%*%#++oo.o          ++O&>-%*%*&%*&*&%%%@O.o%>*%*+.OO%%#@+++@@",
"@@@@@+Ooooo.o          OOO&>***%$**%%%*%%*+O.o%>**&+.+.oooOOOOOO",
"+OOooo.....Xo          OOO&>%*%&*%%$%*&%%%+O.o%>%*%+.+o.........",
"......XXXXOOO                                  >**%+.+ooooooooXX",
"O@@#%&%%%%%O.                                   &**+.+OOOO++++++",
"@%=:::;;;;*#.                                    %*+.O*:::=%@+OO",
"@=;;-=***&*O.                                     %+.O:%%%=:::::",
"@:=**%*&&*%#.                                     %+.O:%%%**%%*%",
"@:=&%*%**%*#.                                     %+.O:***%%**%*",
"@:*&*%***$*+.                                     *+.O;**%**%%*%",
"@:=*%%*&&*%+.:                                    ++.O-****%*%%*",
"@:=%**%**%*+.-:                                   oooO***%**%*%%",
"@:=**%*&&*%+.=:$                                  oOO.#++O++++++",
"@:=%**%**$*+.&:&$**%%#+...o+O%%@+Oo.....          ++++..........",
"@:=%%&*%%*%+.$:*&*%%*@+...XOOoXXX..XXXXX          OOOOOOOOoooooo",
"@:=**%&**&*+.+>%*%%*%@+...XOOOoooooOOOOO          $$$$$$$$$$$$$$",
"@:=%%*%**%#+.O>*%%$%*#+XX.Xo@$$$$$$$$$$$          -------=------",
"@;=**&*%%*+.XO>*%*%%%@+XX..o$-----------          >>>>>>>>>>::;;",
"@;=&*%***%+.XO>%*$&%*@+oo...$-;>>>>>>:>>          ;-=----*--=--=",
"@-=*%*%%%%+.oO:**%*%%@+oo...$-;=-----*--          %%*%*%%%%*%*%*",
"O-%%*%####+.oO;%%*%*%#+oo...@-:=%%%%%%*%          $&%**&&%*%***%",
"O=***%++++.XoO=*%%*%%#+oo...O-:-%&%*%*%&          &%%$%&&&%*%*%*",
"O$$$++++++.XoO&&*%%%#@+oo...X=:;**%%%%$%          %*%%*%%$$%$&%&",
"Oo...+++++.oOO$@@@@@@++oo...X*:;%%*%*%%*          &%*%%$$%%%*%$$",
"+++Oo..XX.XoOo                                    %$%%%%%*%$%&$$",
"OOOOOOOXXXXoO                                     %%*%*%%%*%%%%&",
"O$****&%%@OO                                      $$$$$$$$$$$$$$",
"O*-::::::-*                                       ++++++++++++++",
"O*:**%-;;::                                       XXX...........",
"O*:***===%*                                       XXXXXXXXXXXXXX",
"O*:*%*$$$*&                                       oooooooooooooo",
"O*;***&**%&%                                     ++OOOOOOOOOOOOO",
"O*-*%*$$$&*%*                                   ++O=::::::::;-=&",
"O*%@@@@@@@@@@@                                 =@+$:***%%*%*&*%*",
"O%@ooooooooooooooooooooooooooooooooo.XO==*==&@&%@O=*%*%****%*%*%",
"Oo...................................XOooOo+@@@@@O:*&&***&&*&**%",
"+OoooXXXXXXXXXXXXXXXXXXXXXXXXXXXXXXXXXo+++oo.....o++++++++++++++",
"++++OOOOOOOOOoooooooooooooooooooooooooo+++++oooooo++............",
"oooooooooooooooooooooooooooooooooooooooooooooooooooooooooooooooo"
};
