/* XPM */
static char *_6ce3c319f4540f0da2e3dc5076aa0ee9p0SnbjXJgmlnnHO[] = {
/* columns rows colors chars-per-pixel */
"64 64 16 1 ",
"  c #202020",
". c #2C2C2C",
"X c gray22",
"o c #484848",
"O c gray33",
"+ c #646464",
"@ c gray44",
"# c #7C7C7C",
"$ c gray55",
"% c #989898",
"& c gray66",
"* c #B4B4B4",
"= c #C0C0C0",
"- c #D0D0D0",
"; c gainsboro",
": c #ECECEC",
/* pixels */
"................................................................",
"OOOOOOOOOOOo;;;;;;;;;;;;;;;;; X$&=-------==&$O oooooooooooOOOOOO",
"OOOOOOOOOOOo;---=------==---$ X$=*$&$$$$$$$&OX X@$$$$$$##@+ooooo",
"$$$$$$$$$ Oo;-=*-*-=*-===*-$+ X&;&$&$&$&&$&$OX X$;;;;;;==*&$$$$$",
"-;--*&$$$ Oo;-&&&&$&&&&%%&&#O X$=$$$&&&&&$$@OX X$;;===-;;;;;;---",
"&&&&&&#@@ Oo:=%&&&&&&%&$$&&@O Xo&$&&$$&$$&@OOX X$;*&$&$&&&&$$&$&",
"*%&%&$#@@ oo:-&$&%&$%%%$$%&$O Xo#$$&$&&$$&@XXX X$;*$&$%$$$$&$$%%",
"**#*$%+OO Xo:-$%$&&&$#$%%&$+O Xoo$&&&$$$$&@XXX.X$;*&$%#&&%#$&$&&",
"%&&%%@ooo .o==&%&$&$%$%$$$&@O  oOo#XXXXXXXXXX .X#;;$&$#%%#%$&$%#",
"$$$$@Oooo .o&:&&&$$%$$$$$&$O#. XoXXXXXXXXXX   ooo=-$$$%%%%%$$&$&",
"@@@@OoXXX .o$;$&$%#$$&$&&$&@O. XoX..      ....oOo=*$&$&$$$$@@+++",
"OOooo     .o@;&$%###&%$$$#$@+X Xoooo@#$&&&&&%@XOo*$@@++++OOOOooo",
"     .....XOo;-$$$%%$$&##$&$OX Xo@&&;;:;;--%@O Oo$@++OooooXXXXX.",
"..........XOo&-$&$#$&$$%%$$@OX .X&=;-*$&&$&$@X XXXXXXXXXXXX..   ",
"XXXXXXXXXXXOo$-&$&%$#$#$$&$OOX .o&;=&$$$$$$$OX X...........XXXXX",
"OoXXXXXXXXXOo@=$&%$&%&$&&$&O@o .o&:&$$&$$&$&OX XoOOOO oooooooooo",
"%%%%%%%%%%. Oo==%$$%%#$$$$$@OO  o&:$$&&$$&$$OX X@&;;OoO##%%%%%%%",
"------***@X Oo$=$&$#$$$&&$@$@o  o&-&&$$&&$&$OX X&;=& o#==;;;;;;;",
"&%$&$&&@@@X Oo@%&$&&$&@$$@O@Oo  o&-&$@@@@@OOOX X;=&$ o%;;-******",
"&$&$&$$@@@X oOo%%@@@@OO@@O@Oo.  .&$@$@XXXXXXXX +;*$$ o%;;*&%&%&$",
"&%$&$&&@@OX oOo+OOOOoooXX.      .$@XXX         +;&&$ o%;;&$%$%$%",
"&$&$&$$@@OX oOo....             .XOX     ......$;&&$ o$==$&%&%&$",
"$&##$$&@@OX XOOoX         ooooooo$$%&&%$$$#O.X+=;&$# o$==&$%$%$%",
"$$##$&$++oX X$;;;;=*&$+XXo+#&&==-;;;;;;;;-%+ X#;=&&@ o#==&%$&$&$",
"$$&&$$$++oX X;=&%%%&%%XOOo#-::;=*=========@O X$;*%$@ o@==$&%$%$$",
"%&$$&$@OOXX X;&$%&&%%& OOo%:=$&$&%$&%&%$$$+o X$:&$&O oo$$@+OOO++",
"+++++OoXXXX X;&&&$&$&+ ooo%:&&&$#&&$$$&$$&Oo X$:&&%O O XXXoooooo",
"OooXXX     .X;$&$&*$#+ ooo%:$&$%&$$#$&%$$$Oo X$:$&$O OX         ",
"      ....ooo;&%$&$&#+ XXo%:%$&$$#$#$$$&&$Oo X$:&&$O OXXXXXXXX..",
"o++@$%$$$$$o ;&#%$&$#+X  o%:&$$$#$#$&#$$$&Oo X$:%&&O OooooOOOOOO",
"+$*;;;----&@ ;&&$#$&$+X  o$;=%$&$&##$#$&&$OX X$;$$&O o&;;;*$+Ooo",
"+*--=*&&&%&o :%%&#$&%@o  o#-=&$$#$##&$&$$#OX.X$;&%$O o;$$$*;;;;;",
"+;*&&$&%%&$@ :%&%&&$&@o  XO=:&&%$&$&##$&&@OX.X$;$&$O o;$$$&&$$&$",
"+;*%$&$&&$&@ :%$%&$&$+O  .O&:&&&$$#$##&$$@o..o$-&&$O o;&&&$$&&$&",
"+;&%&$&&&#&O ;&&&%$%&+O  .O$:=&$&$$%$&$&&+o .o$-&$&O o-&&$&&$$&$",
"+;*&$$&%%&$O ;=#%#&&%+O   o@-=&$#%$$%$%$$+X .o$-$&OO o=&&&&$&$$&",
"+;*$&&$&&$&O =;$%&$%$+O   oO*;&$&$&$&$$++OX Xo#&#OXXXo&&&$&&$&$$",
"+;*&&$&%%&$O *;#&$$$&@O   XO$=&$#++OooXXXXX XoOXXXXoo @OOoOOOOOO",
"+;*$&&$&&#&O %;%#&&$$@O   XOo$$+OoX         XoOooOOOOO          ",
"+;*$$%&$$&$O #;&%&$$&+O   .ooX...  .........XoOOooooooooooXXXXXX",
"+;*&&$%&&%&O O:$&$$&$+O   .oooXXXXXoooooooooooOO################",
"+;*$$&$&&$@O o:&$$#$&@O.. .X+##############$$%%&**=======*======",
"+-*&&%&$$&O .o:&$&$$$+O..  X#================-;;::::::::::::;;--",
"+-*%&$&&&$O .o:$&#%$&+OXX   #=-::::::;:::;::::::;;-=*====&==*==*",
"+=*&$&$$$$O Xo;&&$&$$+OXX   #=-*=====&===&===**&%%$$&$&$$$$&$&$&",
"o=$$&$@@@@O Xo-$$&$&$@OXX   +=;*$$$$$$&$$&&%$%&&&%#%$&&%%$&$&&&$",
"o*&&&$OOOO .Xo*&$$&$$@OXX   o=;=$%$&$&$%%&$$%&&$%$%$$#$%%%$&$&$&",
"o###OOOOOO .Xo%%&$$$@+OXX   .*;-&&$$$$#$$$&$%$&%#$$&$$&$$##$#%$%",
"oX   OOOOO Xoo#++++++OOXX   .&;-$$&$&$$&&$##%%$&$&%$&$$##$$$&$##",
"OOOoX  .. .XoXXXXXXXXXXXX   .$-**$$&$&#$$$%#%$%#&$$#$$$$$&$#$%##",
"ooooooo....XoXX             .$%@@@@@@@&$$&&$$#$$$#$$&$&$$$&$$$$%",
"o#&&&&%$$+ooOXX.............XOoXX.....O@@@#$####################",
"o&=;;;;;;=&&$@+OoXXXXXXXXXXXoOooXXXXXX.ooOOOOOOOOOOOOOOOOOOOOOOO",
"o&;&&$=--;;;=&&&&&&&&$$$$##@++OOoooooXX..............           ",
"o&;&&&***$&=;;;;;;;;;;;;;--==&&&&&$oOoXXXXXXXXXX................",
"o&;&$&###&%$#&$&$&$&&$&$$&&*=;;;-=#XoOooooXXXXXXXXXXXXXXXXXXXXXX",
"o&-&&&%&&$%$%&$$&##$&#$$$$&$&$&&&#+ XOo&&;;&#oooOOOooooooooooooo",
"o&=&$&###%&$&&%$#&#$#%$&&$&$&$&&&+O Xoo;;&&;;;;*OOo*;;;;;;;;-=*%",
"o&$++++++++++++++++++++++++++++++OOX Xo;;*******+O#;&&&$$&$&%&$&",
"o$+XXXXXXXXXXXXXXXXXXXXXXXXXXXXXXXXX .o**&**%+%$+o*&$&$&&&&$&$&$",
"oX                                   .oXXoXO+++++o;&%%&&&%%&%&&$",
"OoXXX.................................XOOOXX     XOOOOOOOOOOOOOO",
"OOOOoooooooooXXXXXXXXXXXXXXXXXXXXXXXXXXOOOOOXXXXXXOO            ",
"XXXXXXXXXXXXXXXXXXXXXXXXXXXXXXXXXXXXXXXXXXXXXXXXXXXXXXXXXXXXXXXX"
};
