/* XPM */
static char *_d04cc8301234eabb5713e9b97023052CdLZbGX2gXDfbnoS[] = {
/* columns rows colors chars-per-pixel */
"64 64 17 1 ",
"  c black",
". c #202020",
"X c #2C2C2C",
"o c gray22",
"O c #484848",
"+ c gray33",
"@ c #646464",
"# c gray44",
"$ c #7C7C7C",
"% c gray55",
"& c #989898",
"* c gray66",
"= c #B4B4B4",
"- c #C0C0C0",
"; c #D0D0D0",
": c gainsboro",
"> c #ECECEC",
/* pixels */
"XXXXXXXXXXXXXXXXXXXXXXXXXXXXXXXXXXXXXXXXXXXXXXXXXXXXXXXXXXXXXXXX",
"+++++++++++O:::::::::::::::::.o%*-;;;;;;;--*%+.OOOOOOOOOOO++++++",
"+++++++++++O:;;;-;;;;;;--;;;%.o%-=%*%%%%%%%*+o.o#%%%%%%$$#@OOOOO",
"%%%%%%%%%.+O:;-=;=;-=;---=;%@.o*:*%*%*%**%*%+o.o%::::::--=*%%%%%",
";:;;=*%%%.+O:;****%****&&**$+.o%-%%%*****%%#+o.o%::---;::::::;;;",
"******$##.+O>-&******&*%%**#+.oO*%**%%*%%*#++o.o%:=*%*%****%%*%*",
"=&*&*%$#    >;*%*&*%&&&%%&*%+.oO$%%*%**%%*#ooo.    %*%&%%%%*%%&&",
"==$=%&@      ;%&%***%$%&&*%@+.oOO%***%%%%*#ooo      %&$**&$%*%**",
"&**&&#        *&*%*%&%&%%%*#+..O+O$oooooooooo        %$&&$&%*%&$",
"%%%%#          **%%&%%%%%*%+$X.oOoooooooooo.          &&&&&%%*%*",
"####+          *%&$%%*%**%*#+X.oOoXX......XX          *%%%%##@@@",
"++OOO           &$$$*&%%%$%#@o.oOOOO#$%****           @@@++++OOO",
".....           %%&&%%*$$%*%+o.oO#**::>::;;           OOOOoooooX",
"XXXXX           *%$%*%%&&%%#+o.Xo*-:;=%**%*           oooooXX...",
"oooooo          %*&%$%$%%*%++o.XO*:-*%%%%%%          XXXXXXooooo",
"+Ooooo           &%*&*%**%*+#O.XO*>*%%*%%*           .OOOOOOOOOO",
"&&&&&&           %%&&$%%%%%#++..O*>%%**%%*           O+$$&&&&&&&",
";;;;;;           *%$%%%**%#%#O..O*;**%%**%           O$--:::::::",
"*&%*%**           **%*#%%#+#+O..O*;*%####           .O&::;======",
"*%*%*%%           ###++##+#+OX..X*%#%#ooo           .O&::=*&*&*%",
"*&%*%**           ++OOOooX......X%#ooo...           .O&::*%&%&%&",
"*%*%*%%#          X.............Xo+o.....          %.O%--%*&*&*%",
"%*$$%%*#           .......OOOOOOO%%&**&%           $.O%--*%&%&%&",
"%%$$%*%@           =*%@ooO@$**--;:::::::           #.O$--*&%*%*%",
"%%**%%%@           *&&o++O$;>>:-=-------           #.O#--%*&%&%%",
"&*%%*%#++          &&*.++O&>-%*%*&%*&*&%          *+.OO%%#@+++@@",
"@@@@@+Ooo           *@.OOO&>***%$**%%%*           &+.+.oooOOOOOO",
"+OOooo...           $@.OOO&>%*%&*%%$%*&           %+.+o.........",
"......XXX           $@.ooO&>&%*%%$%$%%%           %+.+ooooooooXX",
"O@@#%&%%%%           @o..O&>*%%%$%$%*$           **+.+OOOO++++++",
"@%=:::;;;;           @o..O%:    %*$$%$           %*+.O*:::=%@+OO",
"@=;;-=***&           #O..O$      %$$*%           &%+.O:%%%=:::::",
"@:=**%*&&*%          #O..o        %*$$          %*%+.O:%%%**%%*%",
"@:=&%*%**%*           +..          %$           **%+.O:***%%**%*",
"@:*&*%***$*           +..          &%           *%*+.O;**%**%%*%",
"@:=*%%*&&*%           +.            &           %*++.O-****%*%%*",
"@:=%**%**%*+           .                       *$+oooO***%**%*%%",
"@:=**%*&&*%+                                   ooooOO.#++O++++++",
"@:=%**%**$*+                                   OO+++++..........",
"@:=%%&*%%*%+.                                 ++OOOOOOOOOOoooooo",
"@:=**%&**&*+.                                 ++$$$$$$$$$$$$$$$$",
"@:=%%*%**%#+.                                 &*==-------=------",
"@;=**&*%%*+.X                                 ::>>>>>>>>>>>>::;;",
"@;=&*%***%+.XO                               >>>::;-=----*--=--=",
"@-=*%*%%%%+.oO                               ==*&&%%*%*%%%%*%*%*",
"O-%%*%####+.oO                               &***&$&%**&&%*%***%",
"O=***%++++.XoO                               **%&%&%%$%&&&%*%*%*",
"O$$$++++++.XoO&                             &%*&$%%*%%*%%$$%$&%&",
"Oo...+++++.oOO$                             &&%*%*&%*%%$$%%%*%$$",
"+++Oo..XX.XoOoo              %              &%&$*%%$%%%%%*%$%&$$",
"OOOOOOOXXXXoOoo.             %             %%$%%%$%%*%*%%%*%%%%&",
"O$****&%%@OO+ooX            o+O            %$$$$$$$$$$$$$$$$$$$$",
"O*-::::::-**%#@+            O+O            +++++++++++++++++++++",
"O*:**%-;;:::-***           #@@+            XXXXXXXXXX...........",
"O*:***===%*-:::::          --***          ooooooXXXXXXXXXXXXXXXX",
"O*:*%*$$$*&%$*%*%          =-:::          oooooooooooooooooooooo",
"O*;***&**%&%&*%%*$        *%*%***        ::*$OOO+++OOOOOOOOOOOOO",
"O*-*%*$$$&*%**&%$*$      %*%*%***@      :**::::=++O=::::::::;-=&",
"O*%@@@@@@@@@@@@@@@@@    @@@@@@@@@++    ::=======@+$:***%%*%*&*%*",
"O%@ooooooooooooooooooooooooooooooooo.XO==*==&@&%@O=*%*%****%*%*%",
"Oo...................................XOooOo+@@@@@O:*&&***&&*&**%",
"+OoooXXXXXXXXXXXXXXXXXXXXXXXXXXXXXXXXXo+++oo.....o++++++++++++++",
"++++OOOOOOOOOoooooooooooooooooooooooooo+++++oooooo++............",
"oooooooooooooooooooooooooooooooooooooooooooooooooooooooooooooooo"
};
